# xmcd
#
# Track frame offsets: 
#        150
#        13635
#        24543
#        34995
#        46738
#        61480
#        74663
#        86128
#        97015
#        107540
#        118400
#        132078
#        144640
#        154213
#        167623
#        177300
#        190783
#        199513
#        208888
#        223420
#        232765
#        243325
#
# Disc length: 3414 seconds
#
# Revision: 4
# Processed by: cddbd v1.5.2PL0 Copyright (c) Steve Scherf et al.
# Submitted via: ExactAudioCopyFreeDBPlugin 1.0
#
DISCID=440d5416
DTITLE=Various Artist - Blues Hangover: Excello Blues Rarities [CD
DTITLE=1)
DYEAR=1995
DGENRE=Blues
TTITLE0=Jimmy Anderson - I'm A King Bee
TTITLE1=Jimmy Anderson - Going Through The Park
TTITLE2=Jimmy Anderson - Naggin'
TTITLE3=Jimmy Anderson - Nothing In This World
TTITLE4=Jimmy Anderson - Frankie and Johnny
TTITLE5=Jimmy Anderson - Love Me Babe
TTITLE6=Jimmy Anderson - Goin' Crazy Over TV
TTITLE7=Jimmy Anderson - Ain't Gonna Let Her Go
TTITLE8=Jimmy Anderson - Rats and Roaches On Your Mind
TTITLE9=Jimmy Anderson - Going Through The Park (Alternate Take)
TTITLE10=Blue Charlie - Don't Bring No Friend (Breakdown Take)
TTITLE11=Blue Charlie - I'm Gonna Kill That Hen
TTITLE12=Whispering Smith - Harmonica Twist
TTITLE13=Whispering Smith - Please Give Me One More Chance
TTITLE14=Whispering Smith - Wake Up Old Maid
TTITLE15=Lightnin' Slim - Death Valley Blues
TTITLE16=Little Sonny - Love Shock
TTITLE17=LIttle Sonny - I'll Love You Baby
TTITLE18=Little Al - No Jive
TTITLE19=Little Al - Little Lean Woman
TTITLE20=Ole Sonny Boy - You Better Change
TTITLE21=Ole Sonny Boy - Blues And Misery
EXTD=
EXTT0=
EXTT1=
EXTT2=
EXTT3=
EXTT4=
EXTT5=
EXTT6=
EXTT7=
EXTT8=
EXTT9=
EXTT10=
EXTT11=
EXTT12=
EXTT13=
EXTT14=
EXTT15=
EXTT16=
EXTT17=
EXTT18=
EXTT19=
EXTT20=
EXTT21=
PLAYORDER=
